<svg width="139" height="21" viewBox="0 0 139 21" fill="none" xmlns="http://www.w3.org/2000/svg">
<path d="M19.3729 2.73887e-07C19.9921 2.87521e-07 20.494 0.501441 20.494 1.12C20.494 3.59424 18.4862 5.6 16.0094 5.6H6.82979C6.82979 2.50721 9.33961 5.2976e-08 12.4356 1.21144e-07L19.3729 2.73887e-07Z" fill="url(#paint0_linear_3223_105788)"/>
<path d="M19.0949 7.7C19.0949 10.7928 16.5851 13.3 13.4891 13.3H0C1.85361e-07 10.2072 2.50982 7.7 5.60584 7.7H19.0949Z" fill="url(#paint1_linear_3223_105788)"/>
<path d="M20.118 2.5315e-07C22.262 3.70104e-07 24 1.73624 24 3.878C24 4.97335 23.6518 6.0404 23.0056 6.92531L22.2482 7.9625C22.2482 6.63761 21.173 5.56357 19.8467 5.56357H15.4161H15.5077L19.1276 0L20.118 2.5315e-07Z" fill="url(#paint2_linear_3223_105788)"/>
<path d="M13.4891 21C16.5851 21 19.0949 18.4928 19.0949 15.4H8.58394C5.48792 15.4 2.9781 17.9072 2.9781 21H13.4891Z" fill="url(#paint3_linear_3223_105788)"/>
<path d="M34.8412 16.7317C37.829 16.7317 39.511 15.0054 39.7323 12.9693H37.4085C37.1871 14.3415 36.1027 14.939 34.8633 14.939C33.1149 14.939 31.8755 13.589 31.8312 11.5086H39.8208V11.0217C39.8208 7.54696 37.9839 5.2895 34.7526 5.2895C31.7206 5.2895 29.5074 7.63549 29.5074 10.9774C29.5074 14.6956 31.632 16.7317 34.8412 16.7317ZM31.8534 9.87081C32.0083 8.25518 33.1149 7.03792 34.7305 7.03792C36.3904 7.03792 37.3863 8.18878 37.4085 9.87081H31.8534Z" fill="white"/>
<path d="M42.2094 16.3776H44.5111V0.885254H42.2094V16.3776Z" fill="white"/>
<path d="M52.2182 16.7317C55.206 16.7317 56.888 15.0054 57.1093 12.9693H54.7855C54.5642 14.3415 53.4797 14.939 52.2403 14.939C50.4919 14.939 49.2525 13.589 49.2082 11.5086H57.1978V11.0217C57.1978 7.54696 55.3609 5.2895 52.1296 5.2895C49.0976 5.2895 46.8844 7.63549 46.8844 10.9774C46.8844 14.6956 49.009 16.7317 52.2182 16.7317ZM49.2304 9.87081C49.3853 8.25518 50.4919 7.03792 52.1075 7.03792C53.7674 7.03792 54.7633 8.18878 54.7855 9.87081H49.2304Z" fill="white"/>
<path d="M59.5864 16.3776H61.8881V10.0921C61.8881 8.36584 62.8398 7.10432 64.2562 7.10432C65.6505 7.10432 66.2481 8.21092 66.2481 10.0257V16.3776H68.5498V10.0479C68.5498 8.38797 69.4572 7.10432 70.8958 7.10432C72.2901 7.10432 72.9098 8.18878 72.9098 9.98147V16.3776H75.2115V9.60522C75.2115 6.8166 73.6401 5.2895 71.4712 5.2895C69.922 5.2895 68.6604 6.19691 67.9965 7.34777C67.4875 6.15265 66.3366 5.2895 64.9644 5.2895C63.4816 5.2895 62.4414 6.13052 61.8438 7.12645C61.8881 6.86087 61.8881 6.57315 61.8881 6.30757V5.64361H59.5864V16.3776Z" fill="white"/>
<path d="M82.8008 16.7317C85.7886 16.7317 87.4707 15.0054 87.692 12.9693H85.3681C85.1468 14.3415 84.0623 14.939 82.823 14.939C81.0745 14.939 79.8352 13.589 79.7909 11.5086H87.7805V11.0217C87.7805 7.54696 85.9436 5.2895 82.7123 5.2895C79.6802 5.2895 77.467 7.63549 77.467 10.9774C77.467 14.6956 79.5917 16.7317 82.8008 16.7317ZM79.813 9.87081C79.9679 8.25518 81.0745 7.03792 82.6902 7.03792C84.3501 7.03792 85.346 8.18878 85.3681 9.87081H79.813Z" fill="white"/>
<path d="M90.169 16.3776H92.4707V10.0036C92.4707 8.4101 93.5109 7.10432 95.1044 7.10432C96.5873 7.10432 97.2955 8.12239 97.2955 9.91507V16.3776H99.5972V9.60522C99.5972 6.90513 98.1586 5.2895 95.7241 5.2895C94.1528 5.2895 93.0019 6.13052 92.4265 7.12645C92.4486 6.79447 92.4707 6.52889 92.4707 6.24118V5.64361H90.169V16.3776Z" fill="white"/>
<path d="M106.674 16.5546C107.227 16.5546 107.759 16.4882 108.091 16.3997V14.5628C107.803 14.607 107.537 14.6292 107.272 14.6292C106.231 14.6292 105.7 14.098 105.7 12.9029V7.50269H108.135V5.64361H105.7V1.92545H103.399V5.64361H101.163V7.50269H103.399V13.2127C103.399 15.603 104.726 16.5546 106.674 16.5546Z" fill="white"/>
<path d="M113.368 16.7317C115.094 16.7317 116.223 16.0013 116.776 14.9169C116.754 15.2489 116.732 15.5587 116.732 15.8907V16.3776H118.879V9.69375C118.879 6.9494 117.462 5.2895 114.496 5.2895C111.752 5.2895 110.07 6.9494 109.959 9.05193H112.305C112.372 7.83467 113.191 7.03792 114.651 7.03792C115.847 7.03792 116.599 7.72401 116.599 8.67569C116.599 9.27325 116.311 9.58309 115.47 9.69375L113.545 9.98147C111.442 10.2692 109.672 11.1766 109.672 13.434C109.672 15.4923 111.42 16.7317 113.368 16.7317ZM112.04 13.3677C112.04 12.3275 112.947 11.8405 114.209 11.5971L115.426 11.3536C116.068 11.243 116.466 11.1102 116.643 10.8889V12.2611C116.643 13.8988 115.448 15.0054 113.877 15.0054C112.859 15.0054 112.04 14.4079 112.04 13.3677Z" fill="white"/>
<path d="M121.746 16.3776H124.048V10.8667C124.048 8.49863 125.243 7.50269 127.102 7.50269C127.412 7.50269 127.633 7.54696 127.788 7.56909V5.33377C127.611 5.2895 127.434 5.2895 127.257 5.2895C125.641 5.2895 124.557 6.28544 124.003 7.50269C124.048 7.10432 124.048 6.70595 124.048 6.28544V5.64361H121.746V16.3776Z" fill="white"/>
<path d="M130.72 20.9368H133.176L138.886 5.64361H136.474L134.194 12.5266C134.062 12.925 133.929 13.3455 133.796 13.8324C133.663 13.3455 133.508 12.925 133.376 12.5266L130.897 5.64361H128.329L132.579 16.1341L130.72 20.9368Z" fill="white"/>
<path fill-rule="evenodd" clip-rule="evenodd" d="M16.1886 5.6051L19.1361 0.191238L19.103 0H19.1784H19.4232H20.167C22.307 0 24.0419 1.73833 24.0419 3.88267C24.0419 4.97934 23.6944 6.04768 23.0493 6.93365L22.2933 7.9721C22.2933 6.64561 21.2201 5.57027 19.8963 5.57027H16.6395C16.4913 5.58926 16.3409 5.60099 16.1886 5.6051Z" fill="white"/>
<defs>
<linearGradient id="paint0_linear_3223_105788" x1="20.6809" y1="2.16364" x2="-15.5744" y2="2.67583" gradientUnits="userSpaceOnUse">
<stop stop-color="#F7808E"/>
<stop offset="1" stop-color="#A6002E"/>
</linearGradient>
<linearGradient id="paint1_linear_3223_105788" x1="20.6809" y1="2.16364" x2="-15.5744" y2="2.67583" gradientUnits="userSpaceOnUse">
<stop stop-color="#F7808E"/>
<stop offset="1" stop-color="#A6002E"/>
</linearGradient>
<linearGradient id="paint2_linear_3223_105788" x1="20.6809" y1="2.16364" x2="-15.5744" y2="2.67583" gradientUnits="userSpaceOnUse">
<stop stop-color="#F7808E"/>
<stop offset="1" stop-color="#A6002E"/>
</linearGradient>
<linearGradient id="paint3_linear_3223_105788" x1="20.6809" y1="2.16364" x2="-15.5744" y2="2.67583" gradientUnits="userSpaceOnUse">
<stop stop-color="#F7808E"/>
<stop offset="1" stop-color="#A6002E"/>
</linearGradient>
</defs>
</svg>
