<svg width="906" height="121" viewBox="0 0 906 121" fill="none" xmlns="http://www.w3.org/2000/svg">
    <path fill-rule="evenodd" clip-rule="evenodd" d="M96.8349 29.1982H110.719V88.5032H96.8349V29.1982ZM115.859 66.1641C115.858 53.2953 126.319 42.8636 139.227 42.8636L139.233 42.8697C152 42.8697 162.367 53.0776 162.593 65.7529C162.575 66.9503 162.502 68.19 162.351 69.4781H130.052C130.277 72.2962 131.193 74.4611 132.807 75.979C134.475 77.4425 136.507 78.1742 138.897 78.1742C142.457 78.1742 144.938 76.7108 146.326 73.7838H161.314C158.149 82.9093 149.458 89.4647 139.231 89.4647C126.324 89.4647 115.86 79.0329 115.859 66.1641ZM130.131 61.7495H147.987C147.987 59.3669 147.15 57.4741 145.481 56.065C143.813 54.656 141.611 53.9545 139.222 53.9545C136.832 53.9545 134.8 54.6318 133.132 55.9864C131.52 57.3399 130.52 59.261 130.131 61.7495ZM67.6395 42.8636C54.7323 42.8636 44.2748 53.2953 44.2813 66.1641C44.2877 79.0329 54.7558 89.4647 67.663 89.4647C77.8893 89.4647 86.5777 82.9093 89.7392 73.7838H74.7516C73.3641 76.7108 70.8841 78.1742 67.3237 78.1742C64.9339 78.1742 62.9017 77.4425 61.2329 75.979C59.6188 74.4611 58.7018 72.2962 58.476 69.4781H90.7742C90.9252 68.19 90.9974 66.9503 91.015 65.7529C90.7842 53.0776 80.4132 42.8697 67.6456 42.8697L67.6395 42.8636ZM76.4075 61.7495H58.5519C58.9395 59.261 59.939 57.3399 61.5504 55.9864C63.2177 54.6318 65.2493 53.9545 67.639 53.9545C70.0288 53.9545 72.2309 54.656 73.8996 56.065C75.5683 57.4741 76.4063 59.3669 76.4075 61.7495ZM216.887 45.6286C219.591 44.081 222.544 43.307 225.733 43.3065C231.355 43.3071 235.824 44.9882 239.123 48.3559C242.477 51.7181 244.157 56.3926 244.157 62.3794V88.5033H230.358V64.2177C230.358 61.3332 229.576 59.1139 228.005 57.5658C226.488 55.9633 224.378 55.159 221.672 55.159C218.967 55.159 216.832 55.9633 215.261 57.5658C213.745 59.1139 212.986 61.3332 212.986 64.2177V88.5033H199.187V64.2177C199.187 61.3332 198.405 59.1139 196.834 57.5658C195.317 55.9633 193.207 55.159 190.501 55.159C187.796 55.159 185.661 55.9633 184.09 57.5658C182.574 59.1139 181.816 61.3332 181.816 64.2177V88.5033H167.931V43.7842H181.816V49.396C183.223 47.5274 185.061 46.0579 187.335 44.9876C189.61 43.8689 192.182 43.3065 195.051 43.3065C198.459 43.3065 201.492 44.0261 204.143 45.4714C206.848 46.9106 208.959 48.9667 210.475 51.6395C212.04 49.1844 214.181 47.1767 216.887 45.6286ZM329.234 43.3065C326.256 43.3065 323.581 43.893 321.197 45.0723C318.813 46.197 316.921 47.7451 315.514 49.7226V43.7902H301.63V88.5093H315.514V64.2238C315.514 61.2304 316.296 58.9083 317.867 57.2513C319.438 55.5944 321.549 54.7659 324.2 54.7659C326.85 54.7659 328.961 55.5944 330.532 57.2513C332.103 58.9083 332.885 61.2304 332.885 64.2238V88.5093H346.685V62.3854C346.685 56.4531 345.089 51.8088 341.893 48.4405C338.757 45.0239 334.529 43.3125 329.228 43.3125L329.234 43.3065ZM369.922 73.1188C369.922 74.4552 370.25 75.4167 370.899 76.0033V75.9973C371.548 76.5838 372.627 76.8802 374.144 76.8802H379.093V88.5029H372.033C366.998 88.5029 363.074 87.3055 360.26 84.8987C357.445 82.4375 356.038 78.4585 356.038 72.9555V55.1646H350.518V43.7838H356.038V32.8867H369.922V43.7838H379.014V55.1646H369.922V73.1188ZM417.197 50.1155C415.899 48.0293 414.031 46.3481 411.599 45.0661C409.215 43.7841 406.431 43.1431 403.234 43.1431C399.498 43.1431 396.12 44.0804 393.087 45.949C390.054 47.8176 387.646 50.4905 385.863 53.9616C384.128 57.4327 383.267 61.4661 383.267 66.062C383.267 70.6579 384.134 74.7156 385.863 78.2411C387.646 81.7122 390.054 84.4092 393.087 86.3383C396.12 88.2069 399.474 89.1442 403.156 89.1442C406.346 89.1442 409.136 88.5032 411.514 87.2212C413.952 85.9392 415.845 84.2581 417.197 82.1718V88.5032H431.081V43.7841H417.197V50.1155ZM414.274 74.2378C412.381 76.2153 410.052 77.201 407.292 77.201C404.532 77.201 402.179 76.2153 400.226 74.2378C398.333 72.206 397.387 69.4847 397.387 66.062C397.387 62.6393 398.333 59.9725 400.226 58.0495C402.173 56.072 404.526 55.0863 407.292 55.0863C410.058 55.0863 412.381 56.072 414.274 58.0495C416.221 60.0269 417.197 62.724 417.197 66.1467C417.197 69.5694 416.227 72.2665 414.274 74.2439V74.2378ZM451.327 43.7842V51.2404C452.953 48.7852 454.978 46.8622 457.417 45.4714C459.849 44.0261 462.554 43.3065 465.533 43.3065V57.8137H461.717C458.254 57.8137 455.652 58.5636 453.923 60.0572C452.194 61.4965 451.327 64.0605 451.327 67.7493V88.5033H437.443V43.7842H451.327ZM495.078 71.7586L484.609 43.7843H469.099L487.526 86.9855L477.136 109.741H492.075L520.487 43.7843H505.468L495.078 71.7586ZM249.144 66.1635C249.143 53.2951 259.606 42.8636 272.514 42.8636L272.52 42.8697C285.288 42.8697 295.654 53.0774 295.879 65.7523C295.861 66.9497 295.788 68.1893 295.636 69.4774H263.337C263.561 72.2954 264.477 74.4603 266.091 75.9781C267.759 77.4416 269.791 78.1733 272.181 78.1733C275.741 78.1733 278.222 76.7099 279.611 73.783H294.599C291.433 82.9083 282.741 89.4634 272.514 89.4634C259.607 89.4634 249.144 79.032 249.144 66.1635ZM263.417 61.7491C263.806 59.2605 264.806 57.3395 266.418 55.9861C268.086 54.6315 270.118 53.9542 272.508 53.9542C274.898 53.9542 277.1 54.6557 278.768 56.0647C280.436 57.4737 281.273 59.3665 281.273 61.7491H263.417Z" fill="#F2386C"/>
    <rect x="0.773926" y="61.9497" width="24.9786" height="7.5691" rx="3.78455" fill="#F2386C"/>
    <rect x="14.3301" y="49.8389" width="24.9786" height="7.5691" rx="3.78455" fill="#F2386C"/>
    <rect x="9.8667" y="74.0601" width="24.9786" height="7.5691" rx="3.78455" fill="#F2386C"/>
    <path d="M558.599 44.1548C561.906 44.1548 564.866 44.8481 567.479 46.2348C570.146 47.6214 572.226 49.7548 573.719 52.6348C575.266 55.4614 576.039 58.9281 576.039 63.0348V88.6348H570.519V63.6748C570.519 58.9281 569.319 55.3014 566.919 52.7948C564.573 50.2881 561.346 49.0348 557.239 49.0348C553.026 49.0348 549.666 50.3681 547.159 53.0348C544.653 55.7014 543.399 59.6214 543.399 64.7948V88.6348H537.799V29.4348H543.399V52.3948C544.786 49.7814 546.813 47.7548 549.479 46.3148C552.199 44.8748 555.239 44.1548 558.599 44.1548ZM581.464 66.7148C581.464 62.2348 582.344 58.3148 584.104 54.9548C585.918 51.5414 588.398 48.9281 591.544 47.1148C594.744 45.2481 598.344 44.3148 602.344 44.3148C606.504 44.3148 610.078 45.2748 613.064 47.1948C616.104 49.1148 618.291 51.5681 619.624 54.5548V44.9548H625.224V88.6348H619.624V78.9548C618.238 81.9414 616.024 84.4214 612.984 86.3948C609.998 88.3148 606.424 89.2748 602.264 89.2748C598.318 89.2748 594.744 88.3414 591.544 86.4748C588.398 84.6081 585.918 81.9681 584.104 78.5548C582.344 75.1414 581.464 71.1948 581.464 66.7148ZM619.624 66.7948C619.624 63.2748 618.904 60.1814 617.464 57.5148C616.024 54.8481 614.051 52.7948 611.544 51.3548C609.091 49.9148 606.371 49.1948 603.384 49.1948C600.291 49.1948 597.518 49.8881 595.064 51.2748C592.611 52.6614 590.664 54.6881 589.224 57.3548C587.838 59.9681 587.144 63.0881 587.144 66.7148C587.144 70.2881 587.838 73.4348 589.224 76.1548C590.664 78.8214 592.611 80.8748 595.064 82.3148C597.518 83.7014 600.291 84.3948 603.384 84.3948C606.371 84.3948 609.091 83.6748 611.544 82.2348C614.051 80.7948 616.024 78.7414 617.464 76.0748C618.904 73.4081 619.624 70.3148 619.624 66.7948ZM654.089 44.1548C659.315 44.1548 663.582 45.7814 666.889 49.0348C670.195 52.2348 671.849 56.9014 671.849 63.0348V88.6348H666.329V63.6748C666.329 58.9281 665.129 55.3014 662.729 52.7948C660.382 50.2881 657.155 49.0348 653.049 49.0348C648.835 49.0348 645.475 50.3681 642.969 53.0348C640.462 55.7014 639.209 59.6214 639.209 64.7948V88.6348H633.609V44.9548H639.209V52.3948C640.595 49.7281 642.595 47.7014 645.209 46.3148C647.822 44.8748 650.782 44.1548 654.089 44.1548ZM677.274 66.7148C677.274 62.2348 678.18 58.3148 679.994 54.9548C681.807 51.5414 684.287 48.9281 687.434 47.1148C690.634 45.2481 694.234 44.3148 698.234 44.3148C702.074 44.3148 705.54 45.2481 708.634 47.1148C711.727 48.9814 713.994 51.4081 715.434 54.3948V29.4348H721.034V88.6348H715.434V78.8748C714.1 81.9148 711.914 84.4214 708.874 86.3948C705.834 88.3148 702.26 89.2748 698.154 89.2748C694.154 89.2748 690.554 88.3414 687.354 86.4748C684.207 84.6081 681.727 81.9681 679.914 78.5548C678.154 75.1414 677.274 71.1948 677.274 66.7148ZM715.434 66.7948C715.434 63.2748 714.714 60.1814 713.274 57.5148C711.834 54.8481 709.86 52.7948 707.354 51.3548C704.9 49.9148 702.18 49.1948 699.194 49.1948C696.1 49.1948 693.327 49.8881 690.874 51.2748C688.42 52.6614 686.474 54.6881 685.034 57.3548C683.647 59.9681 682.954 63.0881 682.954 66.7148C682.954 70.2881 683.647 73.4348 685.034 76.1548C686.474 78.8214 688.42 80.8748 690.874 82.3148C693.327 83.7014 696.1 84.3948 699.194 84.3948C702.18 84.3948 704.9 83.6748 707.354 82.2348C709.86 80.7948 711.834 78.7414 713.274 76.0748C714.714 73.4081 715.434 70.3148 715.434 66.7948ZM734.938 54.6348C736.378 51.5948 738.591 49.1148 741.578 47.1948C744.618 45.2748 748.191 44.3148 752.298 44.3148C756.298 44.3148 759.871 45.2481 763.018 47.1148C766.165 48.9281 768.618 51.5414 770.378 54.9548C772.191 58.3148 773.098 62.2348 773.098 66.7148C773.098 71.1948 772.191 75.1414 770.378 78.5548C768.618 81.9681 766.138 84.6081 762.938 86.4748C759.791 88.3414 756.245 89.2748 752.298 89.2748C748.138 89.2748 744.538 88.3414 741.498 86.4748C738.511 84.5548 736.325 82.0748 734.938 79.0348V88.6348H729.418V29.4348H734.938V54.6348ZM767.418 66.7148C767.418 63.0881 766.698 59.9681 765.258 57.3548C763.871 54.6881 761.951 52.6614 759.498 51.2748C757.045 49.8881 754.271 49.1948 751.178 49.1948C748.191 49.1948 745.445 49.9148 742.938 51.3548C740.485 52.7948 738.538 54.8481 737.098 57.5148C735.658 60.1814 734.938 63.2748 734.938 66.7948C734.938 70.3148 735.658 73.4081 737.098 76.0748C738.538 78.7414 740.485 80.7948 742.938 82.2348C745.445 83.6748 748.191 84.3948 751.178 84.3948C754.271 84.3948 757.045 83.7014 759.498 82.3148C761.951 80.8748 763.871 78.8214 765.258 76.1548C766.698 73.4348 767.418 70.2881 767.418 66.7148ZM798.123 89.2748C794.016 89.2748 790.309 88.3681 787.003 86.5548C783.749 84.6881 781.163 82.0748 779.243 78.7148C777.376 75.3014 776.443 71.3281 776.443 66.7948C776.443 62.2614 777.403 58.3148 779.323 54.9548C781.243 51.5414 783.856 48.9281 787.163 47.1148C790.469 45.2481 794.176 44.3148 798.283 44.3148C802.389 44.3148 806.096 45.2481 809.403 47.1148C812.763 48.9281 815.376 51.5414 817.243 54.9548C819.163 58.3148 820.123 62.2614 820.123 66.7948C820.123 71.2748 819.163 75.2214 817.243 78.6348C815.323 82.0481 812.683 84.6881 809.323 86.5548C805.963 88.3681 802.229 89.2748 798.123 89.2748ZM798.123 84.3948C801.003 84.3948 803.669 83.7548 806.123 82.4748C808.576 81.1414 810.549 79.1681 812.043 76.5548C813.589 73.8881 814.363 70.6348 814.363 66.7948C814.363 62.9548 813.616 59.7281 812.123 57.1148C810.629 54.4481 808.656 52.4748 806.203 51.1948C803.749 49.8614 801.083 49.1948 798.203 49.1948C795.323 49.1948 792.656 49.8614 790.203 51.1948C787.749 52.4748 785.776 54.4481 784.283 57.1148C782.843 59.7281 782.123 62.9548 782.123 66.7948C782.123 70.6348 782.843 73.8881 784.283 76.5548C785.776 79.1681 787.723 81.1414 790.123 82.4748C792.576 83.7548 795.243 84.3948 798.123 84.3948ZM845.051 89.2748C840.944 89.2748 837.237 88.3681 833.931 86.5548C830.677 84.6881 828.091 82.0748 826.171 78.7148C824.304 75.3014 823.371 71.3281 823.371 66.7948C823.371 62.2614 824.331 58.3148 826.251 54.9548C828.171 51.5414 830.784 48.9281 834.091 47.1148C837.397 45.2481 841.104 44.3148 845.211 44.3148C849.317 44.3148 853.024 45.2481 856.331 47.1148C859.691 48.9281 862.304 51.5414 864.171 54.9548C866.091 58.3148 867.051 62.2614 867.051 66.7948C867.051 71.2748 866.091 75.2214 864.171 78.6348C862.251 82.0481 859.611 84.6881 856.251 86.5548C852.891 88.3681 849.157 89.2748 845.051 89.2748ZM845.051 84.3948C847.931 84.3948 850.597 83.7548 853.051 82.4748C855.504 81.1414 857.477 79.1681 858.971 76.5548C860.517 73.8881 861.291 70.6348 861.291 66.7948C861.291 62.9548 860.544 59.7281 859.051 57.1148C857.557 54.4481 855.584 52.4748 853.131 51.1948C850.677 49.8614 848.011 49.1948 845.131 49.1948C842.251 49.1948 839.584 49.8614 837.131 51.1948C834.677 52.4748 832.704 54.4481 831.211 57.1148C829.771 59.7281 829.051 62.9548 829.051 66.7948C829.051 70.6348 829.771 73.8881 831.211 76.5548C832.704 79.1681 834.651 81.1414 837.051 82.4748C839.504 83.7548 842.171 84.3948 845.051 84.3948ZM896.459 88.6348L878.459 69.0348V88.6348H872.859V29.4348H878.459V64.4748L896.059 44.9548H903.899L883.179 66.7148L904.059 88.6348H896.459Z" fill="#F2386C"/>
</svg>